<svg width="40" height="28" viewBox="0 0 40 29" fill="none" xmlns="http://www.w3.org/2000/svg">
<path d="M36.4844 0H3.51562C1.58109 0 0 1.57414 0 3.51562V24.6094C0 26.5516 1.58211 28.125 3.51562 28.125H36.4844C38.4189 28.125 40 26.5509 40 24.6094V3.51562C40 1.57367 38.4181 0 36.4844 0ZM35.9445 2.34375C34.8079 3.48414 21.4566 16.8789 20.9081 17.4292C20.45 17.8888 19.5502 17.8891 19.0919 17.4292L4.05547 2.34375H35.9445ZM2.34375 24.1785V3.94648L12.427 14.0625L2.34375 24.1785ZM4.05547 25.7812L14.0816 15.7225L17.432 19.0838C18.8049 20.4613 21.1956 20.4607 22.5681 19.0838L25.9185 15.7226L35.9445 25.7812H4.05547ZM37.6562 24.1785L27.573 14.0625L37.6562 3.94648V24.1785Z" fill="white"></path>
</svg>