<svg width="40" height="38" viewBox="0 0 40 38" fill="none" xmlns="http://www.w3.org/2000/svg">
<path d="M39.9531 15.0353C39.8224 15.4377 39.449 15.6936 39.0476 15.6936C38.9501 15.6936 38.8509 15.6785 38.7532 15.6467L35.2901 14.5215C34.7899 14.359 34.5162 13.8218 34.6787 13.3215C34.8411 12.8213 35.3783 12.5476 35.8787 12.7101L39.3418 13.8352C39.8419 13.9979 40.1157 14.5351 39.9531 15.0353ZM30.1314 5.44561C30.1981 5.45982 30.2647 5.46664 30.3303 5.46664C30.7704 5.46664 31.1657 5.15984 31.2609 4.71217L32.0181 1.15053C32.1274 0.636123 31.799 0.130366 31.2846 0.0210085C30.7702 -0.0883486 30.2645 0.24004 30.155 0.754527L29.3979 4.31617C29.2886 4.83058 29.6169 5.33626 30.1314 5.44561ZM35.4197 8.74291L38.5477 6.93701C39.0032 6.67402 39.1592 6.0916 38.8963 5.63608C38.6333 5.18047 38.0509 5.02445 37.5954 5.28745L34.4673 7.09335C34.0118 7.35635 33.8558 7.93877 34.1187 8.39429C34.2951 8.69982 34.6152 8.8706 34.9444 8.8706C35.1059 8.8706 35.2697 8.82949 35.4197 8.74291ZM33.4346 20.4516C33.8159 21.1118 33.9166 21.883 33.7184 22.6229C33.52 23.3629 33.0472 23.9804 32.387 24.3615C31.9374 24.6211 31.4459 24.7444 30.9606 24.7444C30.177 24.7444 29.4107 24.4218 28.8622 23.8329C24.6697 24.2341 20.4872 25.3984 16.4046 27.2993L21.5768 32.4714C21.9487 32.8434 21.9487 33.4463 21.5768 33.8182L18.3027 37.0924C18.1241 37.271 17.8818 37.3714 17.6293 37.3714C17.3768 37.3714 17.1345 37.2711 16.9559 37.0924L10.467 30.6035C9.60416 31.0322 8.68121 31.2374 7.76858 31.2374C5.66024 31.2374 3.60713 30.1441 2.47936 28.1908L0.815432 25.3088C-0.865081 22.398 0.135798 18.6626 3.04654 16.982L7.47709 14.424C11.6396 11.6877 15.1035 8.3977 17.7805 4.63988C17.3986 3.39378 17.9098 2.00118 19.0855 1.32242C20.4525 0.533432 22.2064 1.0034 22.9955 2.37012L26.0406 7.64442L26.2907 7.49999C27.2935 6.92106 28.4651 6.76798 29.5898 7.06946C30.7144 7.37079 31.6527 8.08907 32.2316 9.09186C32.8106 10.0946 32.9635 11.2663 32.6621 12.3909C32.3608 13.5156 31.6425 14.4538 30.6397 15.0328L30.3896 15.1771L33.4346 20.4516ZM26.9928 9.29398L29.4372 13.5278L29.6873 13.3834C30.2495 13.0589 30.6526 12.5314 30.8223 11.8982C30.992 11.265 30.9067 10.6066 30.5821 10.0443C30.2575 9.48215 29.73 9.079 29.0968 8.90933C28.4636 8.73974 27.8052 8.82505 27.243 9.14955L26.9928 9.29398ZM9.24656 15.5296L15.1639 25.7788C19.2777 23.8093 23.498 22.5544 27.741 22.0391L18.7738 6.50744C16.206 9.92418 13.0092 12.9517 9.24656 15.5296ZM9.85374 28.7726L13.4832 26.6771L7.62835 16.5361L3.99877 18.6316C1.99749 19.7871 1.30936 22.3553 2.46476 24.3566L4.12868 27.2386C5.28415 29.2398 7.85246 29.928 9.85374 28.7726ZM19.5566 33.1449L14.6274 28.2157L12.1837 29.6266L17.6293 35.0723L19.5566 33.1449ZM31.7852 21.4039L21.3459 3.32251C21.0819 2.86517 20.495 2.70788 20.0377 2.97198C19.5803 3.23601 19.4231 3.82295 19.6872 4.2803L30.1264 22.3616C30.3904 22.819 30.9774 22.9762 31.4347 22.7121C31.6544 22.5853 31.812 22.3786 31.8786 22.13C31.9452 21.8815 31.9121 21.6236 31.7852 21.4039Z" fill="white"></path>
</svg>