<svg width="80" height="68" viewBox="0 0 80 68" fill="none" xmlns="http://www.w3.org/2000/svg">
<path d="M45.2407 10.9024C44.9789 10.6407 44.8163 10.2764 44.8163 9.87642C44.8163 9.47642 44.9789 9.11382 45.2407 8.85041C45.5024 8.58862 45.8667 8.42602 46.2667 8.42602C46.6667 8.42602 47.0293 8.58862 47.2927 8.85041C47.5545 9.11219 47.7171 9.47642 47.7171 9.87642C47.7171 10.2764 47.5545 10.639 47.2927 10.9024C47.0309 11.1642 46.6667 11.3268 46.2667 11.3268C45.8667 11.3268 45.5041 11.1659 45.2407 10.9024ZM52.4878 11.3285C52.8878 11.3285 53.2504 11.1659 53.5138 10.9041C53.7756 10.6423 53.9382 10.278 53.9382 9.87805C53.9382 9.47805 53.7756 9.11545 53.5138 8.85203C53.252 8.59024 52.8878 8.42764 52.4878 8.42764C52.0878 8.42764 51.7252 8.59024 51.4618 8.85203C51.2 9.11382 51.0374 9.47805 51.0374 9.87805C51.0374 10.278 51.2 10.6406 51.4618 10.9041C51.7252 11.1659 52.0878 11.3285 52.4878 11.3285ZM58.7089 11.3285C59.1089 11.3285 59.4715 11.1659 59.735 10.9041C59.9967 10.6423 60.1593 10.278 60.1593 9.87805C60.1593 9.47805 59.9967 9.11545 59.735 8.85203C59.4732 8.59024 59.1089 8.42764 58.7089 8.42764C58.3089 8.42764 57.9463 8.59024 57.6829 8.85203C57.4211 9.11382 57.2585 9.47805 57.2585 9.87805C57.2585 10.278 57.4211 10.6406 57.6829 10.9041C57.9463 11.1659 58.3089 11.3285 58.7089 11.3285ZM49.1528 40.0374H44.7854C44.2472 40.0374 43.8098 40.4748 43.8098 41.013C43.8098 41.5512 44.2472 41.9886 44.7854 41.9886H49.1528C49.6911 41.9886 50.1285 41.5512 50.1285 41.013C50.1285 40.4748 49.6911 40.0374 49.1528 40.0374ZM47.4862 47.1886L44.3496 44.9236C43.9122 44.6081 43.3024 44.7073 42.987 45.1431C42.6715 45.5805 42.7707 46.1902 43.2065 46.5057L46.3431 48.7707C46.5154 48.8959 46.7154 48.9561 46.9138 48.9561C47.2163 48.9561 47.5154 48.8163 47.7057 48.5512C48.0211 48.1138 47.9236 47.5041 47.4862 47.1886ZM43.7805 37.2878C43.9789 37.2878 44.1789 37.2276 44.3512 37.1024L47.4878 34.8374C47.9252 34.5219 48.0228 33.9122 47.7073 33.4748C47.3919 33.0374 46.7821 32.9398 46.3447 33.2553L43.2081 35.5203C42.7707 35.8358 42.6732 36.4455 42.9886 36.8829C43.1789 37.1463 43.4764 37.2878 43.7805 37.2878ZM39.7935 33.6634V48.3642C39.7935 50.4244 38.1171 52.1008 36.0569 52.1008C34.2098 52.1008 32.6732 50.7545 32.374 48.9919C29.7496 47.7902 26.8293 46.8943 23.4878 46.2667V50.2439C23.4878 51.5073 22.4602 52.535 21.1967 52.535C18.3642 52.535 17.7561 51.3024 17.6472 50.5691L16.9642 46.0114C14.5382 45.4276 13.0846 43.148 13.0846 41.013C13.0846 38.5431 15.0341 35.878 18.1854 35.878H22.8715C26.4732 35.2455 29.5902 34.3154 32.374 33.0406C32.6732 31.278 34.2098 29.9317 36.0569 29.9317C38.1171 29.9268 39.7935 31.6033 39.7935 33.6634ZM23.6293 44.3057C26.8585 44.8976 29.7219 45.7301 32.3219 46.8341V35.1919C29.7219 36.2959 26.8585 37.1268 23.6293 37.7203V44.3057ZM18.1854 44.2H21.678V37.8244H18.1854C16.0374 37.8244 15.0358 39.7252 15.0358 41.0081C15.0358 42.335 16.013 44.2 18.1854 44.2ZM21.5366 50.2407V46.1512H18.9593L19.574 50.2602C19.6764 50.3675 20.1967 50.5805 21.1967 50.5805C21.3805 50.5805 21.5366 50.4244 21.5366 50.2407ZM37.8423 33.6634C37.8423 32.6797 37.0423 31.878 36.0569 31.878C35.0732 31.878 34.2715 32.678 34.2715 33.6634V48.3642C34.2715 49.348 35.0715 50.1496 36.0569 50.1496C37.0406 50.1496 37.8423 49.3496 37.8423 48.3642V33.6634ZM14.0358 22.9691H3.85854C3.32033 22.9691 2.88293 23.4065 2.88293 23.9447C2.88293 24.4829 3.32033 24.9203 3.85854 24.9203H14.0358C14.574 24.9203 15.0114 24.4829 15.0114 23.9447C15.0114 23.4065 14.5756 22.9691 14.0358 22.9691ZM19.935 22.9691H17.8683C17.3301 22.9691 16.8927 23.4065 16.8927 23.9447C16.8927 24.4829 17.3301 24.9203 17.8683 24.9203H19.935C20.4732 24.9203 20.9106 24.4829 20.9106 23.9447C20.9106 23.4065 20.4732 22.9691 19.935 22.9691ZM3.85854 20.2797H5.9252C6.46341 20.2797 6.90081 19.8423 6.90081 19.3041C6.90081 18.7659 6.46341 18.3285 5.9252 18.3285H3.85854C3.32033 18.3285 2.88293 18.7659 2.88293 19.3041C2.88293 19.8423 3.32033 20.2797 3.85854 20.2797ZM19.935 18.3285H9.75772C9.21951 18.3285 8.78211 18.7659 8.78211 19.3041C8.78211 19.8423 9.21951 20.2797 9.75772 20.2797H19.935C20.4732 20.2797 20.9106 19.8423 20.9106 19.3041C20.9106 18.7659 20.4748 18.3285 19.935 18.3285ZM80 29.4228V45.9545C80 46.4927 79.5626 46.9301 79.0244 46.9301H70.2683V64.0033C70.2683 66.1886 68.4911 67.9659 66.3057 67.9659H11.2325C9.04715 67.9659 7.26992 66.1886 7.26992 64.0033V29.4244H0.97561C0.437398 29.4244 0 28.987 0 28.4488V15.1382C0 14.6 0.437398 14.1626 0.97561 14.1626H7.27154V3.9626C7.27154 1.77724 9.04878 0 11.2341 0H66.3073C68.4927 0 70.2699 1.77724 70.2699 3.9626V28.4472H79.0244C79.5626 28.4472 80 28.8846 80 29.4228ZM9.22276 3.9626V10.0862H36.8715L40.2179 15.3317H68.3187V3.9626C68.3187 2.85366 67.4163 1.95122 66.3073 1.95122L11.2325 1.95122C10.1252 1.95122 9.22276 2.85366 9.22276 3.9626ZM1.95122 27.4732H21.8423V16.1138H1.95122V27.4732ZM68.3171 46.9301H52.7447C52.2065 46.9301 51.7691 46.4927 51.7691 45.9545V29.4228C51.7691 28.8846 52.2065 28.4472 52.7447 28.4472H68.3171V17.2829H39.148L35.8016 12.0374H9.22276V14.161H22.8195C23.3577 14.161 23.7951 14.5984 23.7951 15.1366V28.4472C23.7951 28.9854 23.3577 29.4228 22.8195 29.4228H9.22276V64.0016C9.22276 65.1106 10.1252 66.013 11.2341 66.013H66.3073C67.4163 66.013 68.3187 65.1106 68.3187 64.0016V46.9301H68.3171ZM78.0488 30.3984H53.7203V44.9789H78.0488V30.3984ZM64.7967 34.1333H74.0569C74.5951 34.1333 75.0325 33.6959 75.0325 33.1577C75.0325 32.6195 74.5951 32.1821 74.0569 32.1821H64.7967C64.2585 32.1821 63.8211 32.6195 63.8211 33.1577C63.8211 33.6959 64.2569 34.1333 64.7967 34.1333ZM57.7122 34.1333H60.5431C61.0813 34.1333 61.5187 33.6959 61.5187 33.1577C61.5187 32.6195 61.0813 32.1821 60.5431 32.1821H57.7122C57.174 32.1821 56.7366 32.6195 56.7366 33.1577C56.7366 33.6959 57.1724 34.1333 57.7122 34.1333ZM74.0569 36.7138H72.8813C72.3431 36.7138 71.9057 37.1512 71.9057 37.6894C71.9057 38.2276 72.3431 38.665 72.8813 38.665H74.0569C74.5951 38.665 75.0325 38.2276 75.0325 37.6894C75.0325 37.1512 74.5951 36.7138 74.0569 36.7138ZM57.7122 38.665H68.6276C69.1658 38.665 69.6032 38.2276 69.6032 37.6894C69.6032 37.1512 69.1658 36.7138 68.6276 36.7138H57.7122C57.174 36.7138 56.7366 37.1512 56.7366 37.6894C56.7366 38.2276 57.1724 38.665 57.7122 38.665ZM57.7122 43.1967H74.0569C74.5951 43.1967 75.0325 42.7593 75.0325 42.2211C75.0325 41.6829 74.5951 41.2455 74.0569 41.2455H57.7122C57.174 41.2455 56.7366 41.6829 56.7366 42.2211C56.7366 42.7593 57.1724 43.1967 57.7122 43.1967Z" fill="currentColor"></path>
</svg>