<svg width="81" height="80" viewBox="0 0 81 80" fill="none" xmlns="http://www.w3.org/2000/svg">
<path d="M66.6753 43.459V12.0016C66.6732 10.2339 65.97 8.53919 64.7201 7.28924C63.4702 6.03929 61.7755 5.33614 60.0078 5.33403H57.3408V4.00052C57.3408 2.93952 56.9193 1.92197 56.169 1.17172C55.4188 0.421482 54.4013 0 53.3403 0C52.2793 0 51.2617 0.421482 50.5115 1.17172C49.7612 1.92197 49.3397 2.93952 49.3397 4.00052V5.33403H44.0057V4.00052C44.0057 2.93952 43.5842 1.92197 42.834 1.17172C42.0837 0.421482 41.0662 0 40.0052 0C38.9442 0 37.9266 0.421482 37.1764 1.17172C36.4262 1.92197 36.0047 2.93952 36.0047 4.00052V5.33403H30.6706V4.00052C30.6706 2.93952 30.2492 1.92197 29.4989 1.17172C28.7487 0.421482 27.7311 0 26.6701 0C25.6091 0 24.5916 0.421482 23.8413 1.17172C23.0911 1.92197 22.6696 2.93952 22.6696 4.00052V5.33403H17.3356V4.00052C17.3356 2.93952 16.9141 1.92197 16.1639 1.17172C15.4136 0.421482 14.3961 0 13.3351 0C12.2741 0 11.2565 0.421482 10.5063 1.17172C9.75603 1.92197 9.33454 2.93952 9.33454 4.00052V5.33403H6.66753C4.89984 5.33614 3.20516 6.03929 1.95521 7.28924C0.705267 8.53919 0.00211742 10.2339 0 12.0016L0 61.3413C0.00211742 63.109 0.705267 64.8037 1.95521 66.0536C3.20516 67.3036 4.89984 68.0067 6.66753 68.0088H43.9244C45.0577 70.971 46.9273 73.5953 49.3567 75.6341C51.7861 77.6728 54.6951 79.0587 57.809 79.6607C60.9229 80.2628 64.1388 80.0612 67.1531 79.0749C70.1674 78.0887 72.8805 76.3504 75.0363 74.0241C77.192 71.6979 78.7193 68.8606 79.4737 65.7801C80.2282 62.6996 80.1849 59.4777 79.3481 56.4185C78.5113 53.3594 76.9085 50.564 74.6912 48.2965C72.4738 46.0289 69.715 44.364 66.6753 43.459ZM52.0067 4.00052C52.0067 3.64685 52.1472 3.30767 52.3973 3.05759C52.6474 2.80751 52.9866 2.66701 53.3403 2.66701C53.6939 2.66701 54.0331 2.80751 54.2832 3.05759C54.5333 3.30767 54.6738 3.64685 54.6738 4.00052V9.33455C54.6738 9.68821 54.5333 10.0274 54.2832 10.2775C54.0331 10.5276 53.6939 10.6681 53.3403 10.6681C52.9866 10.6681 52.6474 10.5276 52.3973 10.2775C52.1472 10.0274 52.0067 9.68821 52.0067 9.33455V4.00052ZM38.6717 4.00052C38.6717 3.64685 38.8122 3.30767 39.0623 3.05759C39.3123 2.80751 39.6515 2.66701 40.0052 2.66701C40.3589 2.66701 40.698 2.80751 40.9481 3.05759C41.1982 3.30767 41.3387 3.64685 41.3387 4.00052V9.33455C41.3387 9.68821 41.1982 10.0274 40.9481 10.2775C40.698 10.5276 40.3589 10.6681 40.0052 10.6681C39.6515 10.6681 39.3123 10.5276 39.0623 10.2775C38.8122 10.0274 38.6717 9.68821 38.6717 9.33455V4.00052ZM25.3366 4.00052C25.3366 3.64685 25.4771 3.30767 25.7272 3.05759C25.9773 2.80751 26.3165 2.66701 26.6701 2.66701C27.0238 2.66701 27.363 2.80751 27.6131 3.05759C27.8631 3.30767 28.0036 3.64685 28.0036 4.00052V9.33455C28.0036 9.68821 27.8631 10.0274 27.6131 10.2775C27.363 10.5276 27.0238 10.6681 26.6701 10.6681C26.3165 10.6681 25.9773 10.5276 25.7272 10.2775C25.4771 10.0274 25.3366 9.68821 25.3366 9.33455V4.00052ZM12.0016 4.00052C12.0016 3.64685 12.1421 3.30767 12.3921 3.05759C12.6422 2.80751 12.9814 2.66701 13.3351 2.66701C13.6887 2.66701 14.0279 2.80751 14.278 3.05759C14.5281 3.30767 14.6686 3.64685 14.6686 4.00052V9.33455C14.6686 9.68821 14.5281 10.0274 14.278 10.2775C14.0279 10.5276 13.6887 10.6681 13.3351 10.6681C12.9814 10.6681 12.6422 10.5276 12.3921 10.2775C12.1421 10.0274 12.0016 9.68821 12.0016 9.33455V4.00052ZM6.66753 8.00104H9.33454V9.33455C9.33454 10.3955 9.75603 11.4131 10.5063 12.1633C11.2565 12.9136 12.2741 13.3351 13.3351 13.3351C14.3961 13.3351 15.4136 12.9136 16.1639 12.1633C16.9141 11.4131 17.3356 10.3955 17.3356 9.33455V8.00104H22.6696V9.33455C22.6696 10.3955 23.0911 11.4131 23.8413 12.1633C24.5916 12.9136 25.6091 13.3351 26.6701 13.3351C27.7311 13.3351 28.7487 12.9136 29.4989 12.1633C30.2492 11.4131 30.6706 10.3955 30.6706 9.33455V8.00104H36.0047V9.33455C36.0047 10.3955 36.4262 11.4131 37.1764 12.1633C37.9266 12.9136 38.9442 13.3351 40.0052 13.3351C41.0662 13.3351 42.0837 12.9136 42.834 12.1633C43.5842 11.4131 44.0057 10.3955 44.0057 9.33455V8.00104H49.3397V9.33455C49.3397 10.3955 49.7612 11.4131 50.5115 12.1633C51.2617 12.9136 52.2793 13.3351 53.3403 13.3351C54.4013 13.3351 55.4188 12.9136 56.169 12.1633C56.9193 11.4131 57.3408 10.3955 57.3408 9.33455V8.00104H60.0078C61.0688 8.00104 62.0863 8.42252 62.8366 9.17276C63.5868 9.92301 64.0083 10.9406 64.0083 12.0016V16.0021H2.66701V12.0016C2.66701 10.9406 3.08849 9.92301 3.83874 9.17276C4.58898 8.42252 5.60653 8.00104 6.66753 8.00104ZM6.66753 65.3418C5.60653 65.3418 4.58898 64.9203 3.83874 64.1701C3.08849 63.4198 2.66701 62.4023 2.66701 61.3413V18.6691H64.0083V42.8856C61.2476 42.4595 58.4259 42.6723 55.7604 43.5078C53.0949 44.3433 50.6565 45.7792 48.633 47.7049C48.1039 46.6407 47.3 45.7374 46.3046 45.0883C45.3092 44.4391 44.1583 44.0679 42.9712 44.0129C41.7841 43.9579 40.6039 44.2212 39.5527 44.7755C38.5015 45.3298 37.6175 46.155 36.9924 47.1656C36.3672 48.1762 36.0235 49.3356 35.9968 50.5237C35.9702 51.7118 36.2615 52.8854 36.8408 53.9231C37.42 54.9607 38.266 55.8247 39.2913 56.4256C40.3166 57.0265 41.4838 57.3425 42.6722 57.3408C42.8229 57.3408 42.9722 57.3248 43.1216 57.3154C42.5247 59.9574 42.5224 62.6989 43.1149 65.3418H6.66753ZM44.023 54.4071C43.5922 54.5757 43.1348 54.666 42.6722 54.6738C41.9114 54.6772 41.1654 54.4637 40.5217 54.0582C39.878 53.6527 39.3632 53.0721 39.0378 52.3844C38.7124 51.6967 38.5898 50.9305 38.6845 50.1756C38.7791 49.4207 39.0871 48.7085 39.5722 48.1224C40.0573 47.5363 40.6995 47.1007 41.4234 46.8667C42.1473 46.6327 42.9229 46.61 43.6593 46.8012C44.3957 46.9923 45.0623 47.3895 45.5809 47.9462C46.0995 48.5028 46.4487 49.1958 46.5874 49.9438C45.5306 51.306 44.6676 52.808 44.023 54.4071ZM61.3413 77.3434C58.1764 77.3434 55.0825 76.4049 52.451 74.6465C49.8195 72.8882 47.7685 70.389 46.5573 67.465C45.3461 64.541 45.0292 61.3235 45.6467 58.2194C46.2641 55.1153 47.7882 52.264 50.0261 50.0261C52.264 47.7882 55.1153 46.2641 58.2194 45.6467C61.3235 45.0293 64.541 45.3461 67.465 46.5573C70.389 47.7685 72.8882 49.8195 74.6465 52.451C76.4049 55.0825 77.3434 58.1764 77.3434 61.3413C77.3388 65.5839 75.6514 69.6514 72.6514 72.6514C69.6514 75.6514 65.5839 77.3388 61.3413 77.3434Z" fill="currentColor"></path>
<path d="M61.3418 54.6739C62.0492 54.6739 62.7275 54.9549 63.2277 55.455C63.7279 55.9552 64.0089 56.6335 64.0089 57.3409C64.0089 57.6945 64.1493 58.0337 64.3994 58.2838C64.6495 58.5339 64.9887 58.6744 65.3424 58.6744C65.696 58.6744 66.0352 58.5339 66.2853 58.2838C66.5354 58.0337 66.6759 57.6945 66.6759 57.3409C66.6714 56.1618 66.2765 55.0174 65.5527 54.0865C64.8288 53.1557 63.817 52.491 62.6753 52.1962V50.6734C62.6753 50.3197 62.5349 49.9805 62.2848 49.7304C62.0347 49.4803 61.6955 49.3398 61.3418 49.3398C60.9882 49.3398 60.649 49.4803 60.3989 49.7304C60.1488 49.9805 60.0083 50.3197 60.0083 50.6734V52.1962C58.7527 52.5194 57.6581 53.2898 56.9301 54.3627C56.2021 55.4356 55.8908 56.7374 56.0544 58.0236C56.2181 59.3098 56.8456 60.4921 57.8191 61.3485C58.7926 62.2049 60.0452 62.6765 61.3418 62.6749C61.8693 62.6749 62.385 62.8313 62.8236 63.1244C63.2621 63.4174 63.604 63.834 63.8058 64.3213C64.0077 64.8086 64.0605 65.3449 63.9576 65.8622C63.8547 66.3796 63.6007 66.8548 63.2277 67.2278C62.8547 67.6008 62.3795 67.8548 61.8621 67.9577C61.3448 68.0606 60.8086 68.0078 60.3212 67.8059C59.8339 67.6041 59.4174 67.2622 59.1243 66.8236C58.8312 66.385 58.6748 65.8694 58.6748 65.3419C58.6748 64.9883 58.5343 64.6491 58.2843 64.399C58.0342 64.1489 57.695 64.0084 57.3413 64.0084C56.9877 64.0084 56.6485 64.1489 56.3984 64.399C56.1483 64.6491 56.0078 64.9883 56.0078 65.3419C56.0122 66.521 56.4072 67.6654 57.131 68.5963C57.8548 69.5271 58.8667 70.1918 60.0083 70.4866V72.0095C60.0083 72.3631 60.1488 72.7023 60.3989 72.9524C60.649 73.2025 60.9882 73.343 61.3418 73.343C61.6955 73.343 62.0347 73.2025 62.2848 72.9524C62.5349 72.7023 62.6753 72.3631 62.6753 72.0095V70.4866C63.931 70.1634 65.0256 69.393 65.7536 68.3201C66.4815 67.2472 66.7929 65.9454 66.6292 64.6592C66.4656 63.373 65.8381 62.1907 64.8646 61.3343C63.891 60.4779 62.6384 60.0063 61.3418 60.0079C60.6345 60.0079 59.9561 59.7269 59.456 59.2267C58.9558 58.7266 58.6748 58.0482 58.6748 57.3409C58.6748 56.6335 58.9558 55.9552 59.456 55.455C59.9561 54.9549 60.6345 54.6739 61.3418 54.6739Z" fill="currentColor"></path>
<path d="M47.6152 27.0608C47.3651 26.8108 47.026 26.6704 46.6724 26.6704C46.3188 26.6704 45.9796 26.8108 45.7296 27.0608L19.0594 53.731C18.9321 53.854 18.8305 54.0011 18.7606 54.1638C18.6907 54.3265 18.6539 54.5015 18.6524 54.6786C18.6509 54.8556 18.6846 55.0312 18.7516 55.1951C18.8187 55.359 18.9177 55.5079 19.0429 55.6331C19.1681 55.7583 19.317 55.8573 19.4809 55.9243C19.6448 55.9914 19.8204 56.0251 19.9974 56.0236C20.1745 56.0221 20.3495 55.9853 20.5122 55.9154C20.6749 55.8455 20.822 55.7439 20.945 55.6165L47.6152 28.9464C47.8651 28.6964 48.0056 28.3572 48.0056 28.0036C48.0056 27.65 47.8651 27.3109 47.6152 27.0608Z" fill="currentColor"></path>
<path d="M24.0035 38.6717C25.3222 38.6717 26.6113 38.2807 27.7078 37.5481C28.8042 36.8154 29.6588 35.7741 30.1635 34.5558C30.6681 33.3374 30.8002 31.9968 30.5429 30.7034C30.2856 29.4101 29.6506 28.222 28.7181 27.2895C27.7857 26.3571 26.5976 25.7221 25.3042 25.4648C24.0109 25.2075 22.6702 25.3396 21.4519 25.8442C20.2336 26.3489 19.1923 27.2035 18.4596 28.2999C17.727 29.3964 17.3359 30.6855 17.3359 32.0042C17.3381 33.7719 18.0412 35.4666 19.2912 36.7165C20.5411 37.9665 22.2358 38.6696 24.0035 38.6717ZM24.0035 28.0037C24.7947 28.0037 25.5682 28.2383 26.226 28.6779C26.8839 29.1175 27.3967 29.7423 27.6995 30.4733C28.0023 31.2043 28.0815 32.0086 27.9271 32.7847C27.7728 33.5607 27.3917 34.2735 26.8323 34.833C26.2728 35.3925 25.56 35.7735 24.7839 35.9279C24.0079 36.0822 23.2035 36.003 22.4725 35.7002C21.7415 35.3974 21.1167 34.8847 20.6772 34.2268C20.2376 33.5689 20.003 32.7954 20.003 32.0042C20.003 30.9432 20.4244 29.9257 21.1747 29.1754C21.9249 28.4252 22.9425 28.0037 24.0035 28.0037Z" fill="currentColor"></path>
</svg>