<svg width="80" height="80" viewBox="0 0 80 80" fill="none" xmlns="http://www.w3.org/2000/svg">
<mask id="mask0_1_691" style="mask-type:luminance" maskUnits="userSpaceOnUse" x="0" y="0" width="80" height="80">
<path d="M80 0H0V80H80V0Z" fill="white"></path>
<path d="M39.0625 25C39.925 25 40.625 25.7 40.625 26.5625C40.625 27.425 39.925 28.125 39.0625 28.125C38.2 28.125 37.5 27.425 37.5 26.5625C37.5 25.7 38.2 25 39.0625 25Z" fill="white"></path>
<path d="M39.0625 31.25C39.925 31.25 40.625 31.95 40.625 32.8125C40.625 33.675 39.925 34.375 39.0625 34.375C38.2 34.375 37.5 33.675 37.5 32.8125C37.5 31.95 38.2 31.25 39.0625 31.25Z" fill="white"></path>
</mask>
<g mask="url(#mask0_1_691)">
<mask id="mask1_1_691" style="mask-type:luminance" maskUnits="userSpaceOnUse" x="0" y="0" width="80" height="80">
<path d="M0 7.62939e-06H80V80H0V7.62939e-06Z" fill="white"></path>
</mask>
<g mask="url(#mask1_1_691)">
<path d="M39.0625 25C39.925 25 40.625 25.7 40.625 26.5625C40.625 27.425 39.925 28.125 39.0625 28.125C38.2 28.125 37.5 27.425 37.5 26.5625C37.5 25.7 38.2 25 39.0625 25Z" fill="currentColor"></path>
<path d="M39.0625 31.25C39.925 31.25 40.625 31.95 40.625 32.8125C40.625 33.675 39.925 34.375 39.0625 34.375C38.2 34.375 37.5 33.675 37.5 32.8125C37.5 31.95 38.2 31.25 39.0625 31.25Z" fill="currentColor"></path>
<path d="M78.4375 17.1875H62.8125V1.5625" stroke="currentColor" stroke-width="2.3" stroke-miterlimit="10" stroke-linecap="round" stroke-linejoin="round"></path>
<path d="M40 10.9375H56.5625" stroke="currentColor" stroke-width="2.3" stroke-miterlimit="10" stroke-linecap="round" stroke-linejoin="round"></path>
<path d="M40 17.1875H56.5625" stroke="currentColor" stroke-width="2.3" stroke-miterlimit="10" stroke-linecap="round" stroke-linejoin="round"></path>
<path d="M32.8125 26.5625C32.8125 34.1219 27.4437 40.4281 20.3125 41.875C19.3031 42.0797 18.2578 42.1875 17.1875 42.1875C8.55781 42.1875 1.5625 35.1922 1.5625 26.5625C1.5625 17.9328 8.55781 10.9375 17.1875 10.9375C18.2578 10.9375 19.3031 11.0453 20.3125 11.25C27.4437 12.6969 32.8125 19.0031 32.8125 26.5625Z" stroke="currentColor" stroke-width="2.3" stroke-miterlimit="10" stroke-linecap="round" stroke-linejoin="round"></path>
<path d="M17.1875 35.9375C12.0172 35.9375 7.8125 31.7328 7.8125 26.5625" stroke="currentColor" stroke-width="2.3" stroke-miterlimit="10" stroke-linecap="round" stroke-linejoin="round"></path>
<path d="M17.1875 10.9375V26.5625H32.8125" stroke="currentColor" stroke-width="2.3" stroke-miterlimit="10" stroke-linecap="round" stroke-linejoin="round"></path>
<path d="M20.3125 41.875V70.3125C20.3125 72.0391 21.7109 73.4375 23.4375 73.4375H75.3125C77.0391 73.4375 78.4375 72.0391 78.4375 70.3125V17.1875L62.8125 1.5625H23.4375C21.7109 1.5625 20.3125 2.96094 20.3125 4.6875V11.25" stroke="currentColor" stroke-width="2.3" stroke-miterlimit="10" stroke-linecap="round" stroke-linejoin="round"></path>
<path d="M32.8125 60C32.8125 61.7266 31.4141 63.125 29.6875 63.125C27.9609 63.125 26.5625 61.7266 26.5625 60C26.5625 58.2734 27.9609 56.875 29.6875 56.875C30.55 56.875 31.3312 57.225 31.8969 57.7906C32.4625 58.3563 32.8125 59.1375 32.8125 60Z" stroke="currentColor" stroke-width="2.3" stroke-miterlimit="10" stroke-linecap="round" stroke-linejoin="round"></path>
<path d="M39.3531 49.7094C38.7875 49.1438 38.4375 48.3625 38.4375 47.5C38.4375 45.7734 39.8359 44.375 41.5625 44.375C43.2891 44.375 44.6875 45.7734 44.6875 47.5C44.6875 48.3625 44.3375 49.1438 43.7719 49.7094C43.2062 50.275 42.425 50.625 41.5625 50.625C40.7 50.625 39.9187 50.275 39.3531 49.7094Z" stroke="currentColor" stroke-width="2.3" stroke-miterlimit="10" stroke-linecap="round" stroke-linejoin="round"></path>
<path d="M55.625 60C55.625 61.7266 54.2266 63.125 52.5 63.125C50.7734 63.125 49.375 61.7266 49.375 60C49.375 59.1375 49.725 58.3563 50.2906 57.7906C50.8562 57.225 51.6375 56.875 52.5 56.875C54.2266 56.875 55.625 58.2734 55.625 60Z" stroke="currentColor" stroke-width="2.3" stroke-miterlimit="10" stroke-linecap="round" stroke-linejoin="round"></path>
<path d="M71.7187 41.25C71.7187 42.9766 70.3203 44.375 68.5937 44.375C66.8672 44.375 65.4688 42.9766 65.4688 41.25C65.4688 39.5234 66.8672 38.125 68.5937 38.125C70.3203 38.125 71.7187 39.5234 71.7187 41.25Z" stroke="currentColor" stroke-width="2.3" stroke-miterlimit="10" stroke-linecap="round" stroke-linejoin="round"></path>
<path d="M31.8984 57.7905L39.3547 49.7093" stroke="currentColor" stroke-width="2.3" stroke-miterlimit="10" stroke-linecap="round" stroke-linejoin="round"></path>
<path d="M43.7734 49.7093L50.2922 57.7905" stroke="currentColor" stroke-width="2.3" stroke-miterlimit="10" stroke-linecap="round" stroke-linejoin="round"></path>
<path d="M54.2344 57.3999L66.8594 43.8499" stroke="currentColor" stroke-width="2.3" stroke-miterlimit="10" stroke-linecap="round" stroke-linejoin="round"></path>
<path d="M45.3125 26.5625H69.0625" stroke="currentColor" stroke-width="2.3" stroke-miterlimit="10" stroke-linecap="round" stroke-linejoin="round"></path>
<path d="M45.3125 32.8125H69.0625" stroke="currentColor" stroke-width="2.3" stroke-miterlimit="10" stroke-linecap="round" stroke-linejoin="round"></path>
</g>
</g>
</svg>