<svg width="80" height="79" viewBox="0 0 80 79" fill="none" xmlns="http://www.w3.org/2000/svg">
<path d="M78.9922 28.4027H77.22V19.6374C77.2154 15.3726 73.7589 11.9161 69.4934 11.9109H65.5881L53.972 0.294766C53.5783 -0.0982553 52.9406 -0.0982553 52.5469 0.294766L47.6154 5.22623L43.0291 0.63989C42.6354 0.246212 41.9977 0.246212 41.604 0.63989L30.3337 11.9109H22.4621C18.1966 11.9155 14.7401 15.372 14.7355 19.6374V36.8228C11.5539 37.8424 8.65844 39.6002 6.28588 41.9517C6.2557 41.9734 6.22683 41.997 6.19927 42.0219C6.17434 42.0495 6.15072 42.0784 6.12907 42.1086C-2.04302 50.3449 -2.04302 63.6302 6.12907 71.8666C6.15072 71.8968 6.17368 71.9257 6.19927 71.9526C6.22617 71.9775 6.25504 72.0011 6.28457 72.0228C14.5216 80.1949 27.8069 80.1949 36.0433 72.0228C36.105 71.9821 36.1581 71.929 36.1995 71.8666C39.009 69.0335 40.9597 65.4635 41.8264 61.5687H69.4934C73.7589 61.5641 77.2154 58.1076 77.22 53.8421V45.0775H78.9922C79.5486 45.0775 80 44.6261 80 44.0697V29.4105C80 28.8541 79.5486 28.4027 78.9922 28.4027ZM53.2595 2.43309L62.7379 11.9109H54.3007L49.0406 6.65134L53.2595 2.43309ZM42.3165 2.77756L51.4499 11.9109H33.1832L42.3165 2.77756ZM21.1643 39.9322C21.7213 39.9322 22.1721 39.4814 22.1721 38.9244V37.866C26.5491 38.0944 30.7142 39.8233 33.966 42.7614L33.2239 43.5041C32.8302 43.8978 32.8302 44.5356 33.2239 44.9293C33.6176 45.3229 34.2553 45.3229 34.649 44.9293L35.3918 44.1865C38.3299 47.4389 40.0588 51.6034 40.2865 55.9804H39.2275C38.6711 55.9804 38.2197 56.4319 38.2197 56.9882C38.2197 57.5453 38.6711 57.9961 39.2275 57.9961H40.2871C40.0595 62.3731 38.3306 66.5382 35.3924 69.79L34.6503 69.0479C34.2567 68.6542 33.6182 68.6536 33.2246 69.0472C32.8309 69.4409 32.8309 70.0793 33.2246 70.473L33.9673 71.2157C30.7149 74.1539 26.5504 75.8821 22.1734 76.1105V75.0502C22.1734 74.4938 21.722 74.0424 21.1656 74.0424C20.6085 74.0424 20.1578 74.4938 20.1578 75.0502V76.1105C15.7807 75.8821 11.6156 74.1539 8.36384 71.2157L9.10592 70.473C9.4996 70.0793 9.4996 69.4409 9.10592 69.0472C8.71224 68.6542 8.07449 68.6542 7.68081 69.0479L6.93807 69.79C3.99927 66.5382 2.27037 62.3724 2.04269 57.9954H3.10234C3.6594 57.9954 4.11016 57.544 4.11016 56.9876C4.11016 56.4312 3.6594 55.9798 3.10234 55.9798H2.04269C2.27037 51.6027 3.99927 47.4376 6.93742 44.1859L7.68015 44.9279C8.07383 45.3216 8.71159 45.3216 9.10527 44.9286C9.49894 44.5349 9.49894 43.8965 9.10527 43.5028L8.36253 42.7607C11.615 39.8226 15.7801 38.0944 20.1564 37.866V38.9263C20.1571 39.4827 20.6085 39.9335 21.1643 39.9335V39.9322ZM75.2044 53.8415C75.2004 56.9942 72.6461 59.5491 69.4934 59.5524H42.1729C42.2765 58.7014 42.3284 57.8445 42.3284 56.9869C42.3323 51.4125 40.129 46.063 36.2001 42.1079C36.1588 42.0456 36.1056 41.9918 36.0433 41.9504C30.9786 36.9304 23.7251 34.8012 16.7511 36.2874V19.6374C16.7544 16.4847 19.3094 13.9304 22.4621 13.9265H31.1361L31.1519 13.9422L31.1676 13.9265H53.4655L53.4812 13.9422L53.497 13.9265H69.4934C72.6461 13.9304 75.2004 16.4847 75.2044 19.6374V28.4027H63.997C59.4074 28.423 55.697 32.1498 55.697 36.7401C55.697 41.3304 59.4074 45.0565 63.997 45.0775H75.2044V53.8415ZM77.9844 43.0613H63.997C60.5182 43.0429 57.708 40.2176 57.708 36.7394C57.708 33.2607 60.5182 30.4354 63.997 30.4176H77.9844V43.0613Z" fill="currentColor"></path>
<path d="M60.5156 36.7409C60.5163 38.8156 62.1979 40.4972 64.2726 40.4966C66.3473 40.4966 68.029 38.8142 68.0283 36.7396C68.0283 34.6649 66.3466 32.9839 64.272 32.9839C62.1979 32.9859 60.5176 34.6669 60.5156 36.7409ZM64.272 34.9995C65.2332 34.9995 66.0127 35.7783 66.0127 36.7396C66.0133 37.7008 65.2338 38.4809 64.2726 38.4809C63.3114 38.4816 62.5319 37.7021 62.5313 36.7409C62.5319 35.7797 63.3107 35.0008 64.272 34.9995Z" fill="currentColor"></path>
<path d="M5.75781 56.9875C5.75781 65.4956 12.655 72.3928 21.1631 72.3928C29.6717 72.3928 36.5683 65.4956 36.5683 56.9875C36.5683 48.4795 29.6717 41.5823 21.1631 41.5823C12.659 41.5921 5.76765 48.4834 5.75781 56.9875ZM21.1631 43.5979C28.5583 43.5979 34.5527 49.5923 34.5527 56.9875C34.5527 64.3821 28.5583 70.3771 21.1631 70.3771C13.7685 70.3771 7.77344 64.3821 7.77344 56.9875C7.78197 49.5962 13.7718 43.6064 21.1631 43.5979Z" fill="currentColor"></path>
<path d="M16.8438 64.6919H18.2951V65.8762C18.2951 66.4333 18.7459 66.884 19.3029 66.884C19.8593 66.884 20.3107 66.4333 20.3107 65.8762V64.6919H21.4406V65.8762C21.4406 66.4333 21.8914 66.884 22.4484 66.884C23.0048 66.884 23.4562 66.4333 23.4562 65.8762V64.6184C25.2192 64.2621 26.4882 62.7143 26.4902 60.9152V59.8077C26.4908 58.7565 26.0512 57.7527 25.2783 57.0395C26.0512 56.3256 26.4908 55.3217 26.4902 54.2706V53.163C26.4882 51.3639 25.2192 49.8155 23.4562 49.4599V48.0984C23.4562 47.542 23.0048 47.0906 22.4484 47.0906C21.8914 47.0906 21.4406 47.542 21.4406 48.0984V49.3864H20.3107V48.0984C20.3107 47.542 19.8593 47.0906 19.3029 47.0906C18.7459 47.0906 18.2951 47.542 18.2951 48.0984V49.3864H16.8438C16.2874 49.3864 15.8359 49.8378 15.8359 50.3942V63.6841C15.8359 64.2405 16.2874 64.6919 16.8438 64.6919ZM24.4745 59.8077V60.9152C24.4732 61.8869 23.6859 62.675 22.7141 62.6763H17.8516V58.0473H22.7141C23.6859 58.0486 24.4732 58.8359 24.4745 59.8077ZM17.8516 51.402H22.7141C23.6859 51.4033 24.4732 52.1913 24.4745 53.163V54.2706C24.4732 55.2423 23.6859 56.0297 22.7141 56.0316H17.8516V51.402Z" fill="currentColor"></path>
</svg>