<svg width="80" height="80" viewBox="0 0 80 80" fill="none" xmlns="http://www.w3.org/2000/svg">
<mask id="mask0_1_793" style="mask-type:luminance" maskUnits="userSpaceOnUse" x="0" y="0" width="80" height="80">
<path d="M0 0H80V80H0V0Z" fill="white"></path>
</mask>
<g mask="url(#mask0_1_793)">
<path d="M21.5841 18.8906C18.6643 23.2867 16.9762 28.5614 17.0163 34.208C17.0807 43.2428 21.5148 51.2361 28.3087 56.1872C29.5784 57.1127 30.3198 58.5969 30.3198 60.168V65.428" stroke="currentColor" stroke-width="2.5" stroke-miterlimit="10" stroke-linecap="round" stroke-linejoin="round"></path>
<path d="M61.9208 78.8281V64.3463L69.9134 63.6213C71.8622 63.4444 73.2655 61.6716 72.9903 59.7342L71.5428 49.5469L75.8867 47.722C76.6881 47.3855 77.0747 46.4708 76.7575 45.6614L73.1231 36.3861C72.4011 34.5433 71.9175 32.6158 71.6777 30.6511C70.0103 16.9881 58.2989 6.42704 44.1509 6.57766C39.4455 6.62766 35.0208 7.87438 31.1641 10.0242" stroke="currentColor" stroke-width="2.5" stroke-miterlimit="10" stroke-linecap="round" stroke-linejoin="round"></path>
<path d="M30.3203 70.9586V78.8281" stroke="currentColor" stroke-width="2.5" stroke-miterlimit="10" stroke-linecap="round" stroke-linejoin="round"></path>
<path d="M45.2617 33.2549C46.8594 29.0621 50.9108 26.0819 55.6645 26.0819C59.3719 26.0819 62.6536 27.8949 64.6755 30.6818" stroke="currentColor" stroke-width="2.5" stroke-miterlimit="10" stroke-linecap="round" stroke-linejoin="round"></path>
<path d="M61.315 44.6052C66.7055 36.9746 65.953 26.3471 59.0922 19.5593C56.0259 16.5257 52.2058 14.7224 48.2422 14.1415" stroke="currentColor" stroke-width="2.5" stroke-miterlimit="10" stroke-linecap="round" stroke-linejoin="round"></path>
<path d="M17.9609 14.9978L26.6841 23.6283C27.4 24.3367 27.6256 25.4019 27.2611 26.3408C24.5267 33.3855 26.0498 41.6955 31.81 47.3203C38.8706 54.2153 49.948 54.623 57.4936 48.6461" stroke="currentColor" stroke-width="2.5" stroke-miterlimit="10" stroke-linecap="round" stroke-linejoin="round"></path>
<path d="M42.7116 14.1208C41.1648 14.3357 39.6387 14.7344 38.1705 15.3213C37.2303 15.6969 36.1581 15.4899 35.4384 14.7779L26.668 6.10053" stroke="currentColor" stroke-width="2.5" stroke-miterlimit="10" stroke-linecap="round" stroke-linejoin="round"></path>
<path d="M26.9855 5.45788L17.2732 15.2744C16.5547 16.0007 15.3833 16.0069 14.6571 15.2884L13.5097 14.1534C12.7835 13.4348 12.7772 12.2635 13.4958 11.5371L23.2082 1.7207C23.9268 0.99429 25.098 0.988041 25.8243 1.70663L26.9716 2.84163C27.6979 3.56023 27.7041 4.73163 26.9855 5.45788Z" stroke="currentColor" stroke-width="2.5" stroke-miterlimit="10" stroke-linecap="round" stroke-linejoin="round"></path>
<path d="M26.1992 30.2245C28.24 27.6984 31.3598 26.0818 34.8598 26.0818C39.6136 26.0818 43.665 29.062 45.2627 33.2548C46.8603 37.4477 50.9117 40.4277 55.6653 40.4277C59.3995 40.4277 62.7017 38.588 64.7203 35.7668" stroke="currentColor" stroke-width="2.5" stroke-miterlimit="10" stroke-linecap="round" stroke-linejoin="round"></path>
<path d="M6.95312 4.67664V5.87305" stroke="currentColor" stroke-width="2.5" stroke-miterlimit="10" stroke-linecap="round" stroke-linejoin="round"></path>
<path d="M6.95312 11.1227L6.95328 12.3191" stroke="currentColor" stroke-width="2.5" stroke-miterlimit="10" stroke-linecap="round" stroke-linejoin="round"></path>
<path d="M6.95312 4.67664V5.87305" stroke="currentColor" stroke-width="2.5" stroke-miterlimit="10" stroke-linecap="round" stroke-linejoin="round"></path>
<path d="M6.95312 4.67664V5.87305" stroke="currentColor" stroke-width="2.5" stroke-miterlimit="10" stroke-linecap="round" stroke-linejoin="round"></path>
<path d="M6.95312 11.1227L6.95328 12.3191" stroke="currentColor" stroke-width="2.5" stroke-miterlimit="10" stroke-linecap="round" stroke-linejoin="round"></path>
<path d="M6.95312 4.67664V5.87305" stroke="currentColor" stroke-width="2.5" stroke-miterlimit="10" stroke-linecap="round" stroke-linejoin="round"></path>
<path d="M10.7745 8.4974L9.57812 8.49756" stroke="currentColor" stroke-width="2.5" stroke-miterlimit="10" stroke-linecap="round" stroke-linejoin="round"></path>
<path d="M4.32922 8.49805H3.13281" stroke="currentColor" stroke-width="2.5" stroke-miterlimit="10" stroke-linecap="round" stroke-linejoin="round"></path>
<path d="M10.7745 8.4974L9.57812 8.49756" stroke="currentColor" stroke-width="2.5" stroke-miterlimit="10" stroke-linecap="round" stroke-linejoin="round"></path>
<path d="M10.7745 8.4974L9.57812 8.49756" stroke="currentColor" stroke-width="2.5" stroke-miterlimit="10" stroke-linecap="round" stroke-linejoin="round"></path>
<path d="M4.32922 8.49805H3.13281" stroke="currentColor" stroke-width="2.5" stroke-miterlimit="10" stroke-linecap="round" stroke-linejoin="round"></path>
<path d="M10.7745 8.4974L9.57812 8.49756" stroke="currentColor" stroke-width="2.5" stroke-miterlimit="10" stroke-linecap="round" stroke-linejoin="round"></path>
<path d="M40.5547 66.9214H48.0094" stroke="currentColor" stroke-width="2.5" stroke-miterlimit="10" stroke-linecap="round" stroke-linejoin="round"></path>
<path d="M40.5391 62.9229H43.2277" stroke="currentColor" stroke-width="2.5" stroke-miterlimit="10" stroke-linecap="round" stroke-linejoin="round"></path>
</g>
</svg>