<svg width="80" height="78" viewBox="0 0 80 78" fill="none" xmlns="http://www.w3.org/2000/svg">
<path d="M16.7127 36.4139H27.4336C29.3212 36.4139 30.8572 34.8779 30.8572 32.9896V21.1353C30.8572 19.2477 29.3212 17.7117 27.4336 17.7117H16.7127C14.8251 17.7117 13.2891 19.2477 13.2891 21.1353V32.9896C13.2891 34.8779 14.8251 36.4139 16.7127 36.4139ZM15.8697 21.1353C15.8697 20.6785 16.2553 20.2923 16.7127 20.2923H27.4336C27.891 20.2923 28.2765 20.6785 28.2765 21.1353V32.9896C28.2765 33.447 27.891 33.8332 27.4336 33.8332H16.7127C16.2553 33.8332 15.8697 33.447 15.8697 32.9896V21.1353Z" fill="currentColor"></path>
<path d="M35.2825 20.8834H49.6475C50.3607 20.8834 50.9379 20.3056 50.9379 19.5931C50.9379 18.8805 50.3607 18.3027 49.6475 18.3027H35.2825C34.5694 18.3027 33.9922 18.8805 33.9922 19.5931C33.9922 20.3056 34.5694 20.8834 35.2825 20.8834Z" fill="currentColor"></path>
<path d="M35.2825 28.6488H49.6475C50.3607 28.6488 50.9379 28.071 50.9379 27.3584C50.9379 26.6459 50.3607 26.0681 49.6475 26.0681H35.2825C34.5694 26.0681 33.9922 26.6459 33.9922 27.3584C33.9922 28.071 34.5694 28.6488 35.2825 28.6488Z" fill="currentColor"></path>
<path d="M79.5622 71.0042L71.9361 61.2498C71.5958 60.8138 71.1056 60.5366 70.555 60.4691C70.0019 60.4018 69.4601 60.5517 69.0253 60.8925L67.9073 61.7672L66.4018 59.8436C69.3773 56.7839 71.0981 52.7941 71.2357 48.4995C71.3832 43.9348 69.7437 39.5875 66.62 36.2571C64.0111 33.4764 60.6809 31.7828 57.1882 31.1556V10.3112C57.1882 8.1571 55.4354 6.40495 53.282 6.40495H50.5488V3.90623C50.5488 1.75214 48.796 7.12635e-09 46.6426 7.12635e-09H3.90623C1.75279 -0.000129026 0 1.75201 0 3.90623V59.3534C0 61.5075 1.75279 63.2596 3.90623 63.2596H6.63941V65.7627C6.63941 67.9144 8.3922 69.6646 10.5456 69.6646H53.2817C55.4352 69.6646 57.188 67.9144 57.188 65.7627V64.7712C59.8318 64.2994 62.3156 63.2053 64.473 61.5651L65.8752 63.3566L64.7534 64.2342C63.855 64.9367 63.6937 66.2396 64.3968 67.1405L72.0279 76.8968C72.4362 77.4171 73.0461 77.6899 73.6623 77.6894C74.1071 77.6894 74.557 77.5464 74.9338 77.2515L79.2043 73.9103C80.104 73.2081 80.2653 71.9045 79.5622 71.0042ZM3.90623 60.6789C3.17538 60.6789 2.58067 60.0842 2.58067 59.3534V3.90623C2.58067 3.17538 3.17538 2.58054 3.90623 2.58054H46.6422C47.373 2.58054 47.9678 3.17525 47.9678 3.9061V6.40483H10.5458C8.39233 6.40483 6.63954 8.15697 6.63954 10.3111V60.6788L3.90623 60.6789ZM54.6073 65.7627C54.6073 66.4911 54.0126 67.0839 53.2817 67.0839H10.5458C9.81492 67.0839 9.22021 66.491 9.22021 65.7627V10.3112C9.22021 9.58034 9.81492 8.98562 10.5458 8.98562H53.2817C54.0126 8.98562 54.6073 9.58034 54.6073 10.3112V30.8753C51.1012 30.781 47.5746 31.7729 44.5468 33.8333H35.2838C34.5706 33.8333 33.9934 34.4111 33.9934 35.1236C33.9934 35.8362 34.5706 36.414 35.2838 36.414H41.5485C40.1228 37.9695 39.0312 39.7277 38.2865 41.5987H14.5779C13.8648 41.5987 13.2876 42.1765 13.2876 42.889C13.2876 43.6015 13.8648 44.1793 14.5779 44.1793H37.4968C37.1154 45.881 37.0006 47.6292 37.1442 49.364H14.5781C13.8649 49.364 13.2877 49.9418 13.2877 50.6543C13.2877 51.3669 13.8649 51.9447 14.5781 51.9447H37.5523C37.9855 53.7533 38.7078 55.5087 39.7402 57.1287H14.5781C13.8649 57.1287 13.2877 57.7065 13.2877 58.4191C13.2877 59.1316 13.8649 59.7094 14.5781 59.7094H41.7478C44.8653 62.9979 49.0688 64.8912 53.6019 65.037C53.9412 65.0472 54.2674 65.0338 54.6074 65.0252C54.6073 65.271 54.6073 65.5168 54.6073 65.7627ZM53.685 62.4575C49.8102 62.3328 46.2151 60.7073 43.5638 57.8796C38.0887 52.0422 38.3848 42.8391 44.2217 37.364C46.9334 34.8212 50.439 33.4369 54.1385 33.4369C54.2972 33.4369 54.4561 33.4395 54.6161 33.4445C58.4908 33.5693 62.0859 35.1947 64.7372 38.0225C70.2123 43.8598 69.9162 53.063 64.0782 58.538C61.2517 61.1906 57.5785 62.5753 53.685 62.4575ZM73.7455 74.9041L66.7444 65.953L70.2148 63.2382L77.2146 72.1912L73.7455 74.9041Z" fill="currentColor"></path>
<path d="M62.5989 40.0248C58.2277 35.3669 50.8839 35.1325 46.2265 39.5012C41.5655 43.8681 41.3298 51.215 45.6985 55.878C47.9743 58.3037 51.059 59.5298 54.1499 59.5298C56.9927 59.5298 59.8417 58.4934 62.0759 56.401C66.7321 52.0315 66.9664 44.6853 62.5989 40.0248ZM60.3106 54.5184C56.6866 57.9162 50.9771 57.7322 47.5812 54.1132C44.1853 50.4885 44.3692 44.7784 47.9908 41.3838C49.7247 39.7564 51.9387 38.9512 54.1476 38.9512C56.5493 38.9512 58.9473 39.9044 60.7164 41.7895C64.1111 45.4124 63.9283 51.123 60.3106 54.5184Z" fill="currentColor"></path>
<path d="M61.0343 46.4115C60.2278 42.7125 56.5597 40.3617 52.86 41.1675C52.1633 41.3194 51.7222 42.0068 51.8735 42.7029C52.026 43.3985 52.7151 43.8383 53.4095 43.689C55.7318 43.1863 58.01 44.6548 58.5142 46.962C58.6452 47.5657 59.1794 47.9777 59.773 47.977C59.8637 47.977 59.957 47.9676 60.049 47.9475C60.7457 47.7956 61.1867 47.1076 61.0343 46.4115Z" fill="currentColor"></path>
</svg>