<svg width="24" height="24" viewBox="0 0 24 24" fill="none" xmlns="http://www.w3.org/2000/svg">
<path d="M11.9991 7.19371C9.33898 7.19371 7.1921 9.34059 7.1921 12.0007C7.1921 14.6609 9.33898 16.8078 11.9991 16.8078C14.6593 16.8078 16.8062 14.6609 16.8062 12.0007C16.8062 9.34059 14.6593 7.19371 11.9991 7.19371ZM11.9991 15.125C10.2788 15.125 8.87492 13.7211 8.87492 12.0007C8.87492 10.2804 10.2788 8.87653 11.9991 8.87653C13.7194 8.87653 15.1234 10.2804 15.1234 12.0007C15.1234 13.7211 13.7194 15.125 11.9991 15.125ZM17.003 5.87653C16.3819 5.87653 15.8804 6.37809 15.8804 6.99918C15.8804 7.62028 16.3819 8.12184 17.003 8.12184C17.6241 8.12184 18.1257 7.62262 18.1257 6.99918C18.1259 6.8517 18.097 6.70563 18.0406 6.56934C17.9843 6.43305 17.9016 6.30922 17.7973 6.20493C17.693 6.10065 17.5692 6.01796 17.4329 5.96161C17.2966 5.90525 17.1505 5.87634 17.003 5.87653ZM21.3694 12.0007C21.3694 10.707 21.3812 9.42496 21.3085 8.13356C21.2359 6.63356 20.8937 5.30231 19.7968 4.20543C18.6976 3.10621 17.3687 2.76637 15.8687 2.69371C14.5749 2.62106 13.2929 2.63278 12.0015 2.63278C10.7077 2.63278 9.4257 2.62106 8.13429 2.69371C6.63429 2.76637 5.30304 3.10856 4.20617 4.20543C3.10695 5.30465 2.7671 6.63356 2.69445 8.13356C2.62179 9.42731 2.63351 10.7093 2.63351 12.0007C2.63351 13.2922 2.62179 14.5765 2.69445 15.8679C2.7671 17.3679 3.10929 18.6992 4.20617 19.7961C5.30538 20.8953 6.63429 21.2351 8.13429 21.3078C9.42804 21.3804 10.7101 21.3687 12.0015 21.3687C13.2952 21.3687 14.5773 21.3804 15.8687 21.3078C17.3687 21.2351 18.6999 20.8929 19.7968 19.7961C20.896 18.6968 21.2359 17.3679 21.3085 15.8679C21.3835 14.5765 21.3694 13.2945 21.3694 12.0007ZM19.3069 17.5273C19.1359 17.9539 18.9296 18.2726 18.5991 18.6007C18.2687 18.9312 17.9523 19.1375 17.5257 19.3086C16.2929 19.7984 13.3655 19.6882 11.9991 19.6882C10.6327 19.6882 7.70304 19.7984 6.47023 19.3109C6.04367 19.1398 5.72492 18.9336 5.39679 18.6031C5.06632 18.2726 4.86007 17.9562 4.68898 17.5297C4.20148 16.2945 4.31163 13.3672 4.31163 12.0007C4.31163 10.6343 4.20148 7.70465 4.68898 6.47184C4.86007 6.04528 5.06632 5.72653 5.39679 5.3984C5.72726 5.07028 6.04367 4.86168 6.47023 4.69059C7.70304 4.20309 10.6327 4.31325 11.9991 4.31325C13.3655 4.31325 16.2952 4.20309 17.528 4.69059C17.9546 4.86168 18.2734 5.06793 18.6015 5.3984C18.9319 5.72887 19.1382 6.04528 19.3093 6.47184C19.7968 7.70465 19.6866 10.6343 19.6866 12.0007C19.6866 13.3672 19.7968 16.2945 19.3069 17.5273Z" fill="#ffffff"/>
</svg>
